<?xml version="1.0" standalone="no"?>
<!DOCTYPE svg PUBLIC "-//W3C//DTD SVG 20010904//EN"
 "http://www.w3.org/TR/2001/REC-SVG-20010904/DTD/svg10.dtd">
<svg version="1.0" xmlns="http://www.w3.org/2000/svg"
 width="982.000000pt" height="982.000000pt" viewBox="0 0 982.000000 982.000000"
 preserveAspectRatio="xMidYMid meet">
<metadata>
Created by potrace 1.14, written by Peter Selinger 2001-2017
</metadata>
<g transform="translate(0.000000,982.000000) scale(0.100000,-0.100000)"
fill="#000000" stroke="none">
<path d="M322 5136 l3 -4310 2112 0 2112 0 -6 -25 c-4 -14 -7 -60 -6 -102 2
-225 46 -302 130 -228 l38 33 3 -25 c13 -100 58 -169 160 -246 42 -32 88 -68
102 -81 37 -34 52 -41 78 -31 28 10 40 40 48 121 7 71 26 125 51 143 15 11 13
15 -17 42 -57 51 -46 131 46 319 l39 80 712 0 c700 -1 712 -1 727 -21 17 -22
31 -51 40 -77 3 -12 15 -18 33 -17 41 1 55 9 112 61 38 35 61 48 90 52 43 5
86 -13 108 -44 20 -29 31 -25 38 13 l7 33 789 0 c522 -1 792 -4 797 -11 4 -6
31 -30 60 -54 58 -48 66 -60 97 -146 23 -63 39 -72 91 -54 11 4 34 10 50 12
89 16 270 59 280 68 7 5 15 20 18 33 3 13 21 35 39 49 l33 25 104 -45 c58 -24
125 -51 149 -59 43 -15 44 -15 71 11 41 40 42 57 2 122 -42 70 -68 133 -75
190 -4 22 -9 53 -13 67 -6 24 -2 28 38 46 68 30 90 61 75 107 -7 20 -29 33
-107 66 -59 24 -70 40 -58 86 8 30 19 46 44 60 43 26 53 50 49 127 -5 86 -30
154 -128 349 -98 196 -115 242 -121 328 -6 90 0 109 44 135 l39 22 -1 144 c-1
130 1 147 19 172 19 25 19 31 6 62 -15 35 -62 113 -75 122 -22 17 -60 127 -65
189 -5 66 0 82 30 87 4 1 10 2 15 3 4 1 -12 10 -34 20 -110 50 -170 236 -140
433 6 43 4 51 -28 96 -20 27 -36 57 -36 67 0 9 17 38 38 64 l39 46 -3 172 c-2
155 -13 237 -38 303 -5 11 3 18 26 25 36 11 52 36 64 99 l7 39 -69 -6 c-62 -5
-150 -24 -196 -42 -16 -6 -18 0 -18 55 0 80 19 99 142 134 66 19 88 37 83 69
-2 12 -6 40 -9 63 -7 58 -33 161 -73 294 -20 63 -43 144 -53 179 -16 60 -34
85 -77 109 -12 7 -14 328 -14 2048 l0 2039 -217 0 c-119 -1 -223 -4 -230 -8
-6 -5 -12 -5 -12 0 0 10 -932 9 -948 -1 -7 -4 -12 -4 -12 1 0 10 -931 9 -948
-1 -7 -4 -12 -4 -12 1 0 10 -932 9 -948 -1 -7 -4 -12 -4 -12 1 0 10 -931 9
-948 -1 -7 -4 -12 -4 -12 1 0 10 -932 9 -948 -1 -7 -4 -12 -4 -12 1 0 10 -931
9 -948 -1 -7 -4 -12 -4 -12 1 0 10 -932 9 -948 -1 -7 -4 -12 -4 -12 1 0 10
-931 9 -948 -1 -7 -4 -12 -4 -12 1 0 4 -119 8 -265 8 l-265 0 2 -4309z m4648
3831 c19 -3 64 -7 100 -11 65 -7 90 -10 165 -21 22 -3 54 -8 70 -10 30 -4 103
-17 118 -21 4 -1 16 -2 28 -3 20 -1 20 -5 14 -123 -7 -153 -14 -228 -29 -333
-14 -92 -18 -115 -28 -150 -5 -22 -11 -49 -13 -60 -6 -54 -95 -356 -114 -390
-3 -5 -6 -14 -7 -20 -1 -5 -8 -23 -15 -40 -6 -16 -13 -34 -14 -40 -5 -21 -89
-204 -128 -280 -50 -97 -139 -249 -193 -330 -94 -142 -159 -229 -221 -301 -10
-11 -38 -45 -62 -75 -115 -140 -349 -369 -496 -484 -20 -16 -54 -45 -74 -62
-20 -18 -39 -33 -42 -33 -4 0 -22 -13 -40 -30 -19 -16 -37 -30 -40 -30 -3 0
-26 -16 -50 -35 -24 -19 -49 -35 -56 -35 -6 0 -13 -3 -15 -8 -4 -11 -126 -92
-137 -92 -5 0 -16 -6 -23 -13 -29 -29 -368 -213 -368 -200 0 4 -4 3 -8 -2 -6
-9 -174 -88 -192 -91 -3 0 -27 -11 -54 -23 -77 -34 -404 -142 -471 -155 -5 -1
-19 -5 -30 -9 -11 -3 -31 -8 -45 -11 -14 -3 -35 -7 -47 -10 -13 -4 -32 -8 -44
-11 -11 -2 -28 -6 -37 -9 -9 -3 -37 -8 -62 -11 -24 -4 -47 -8 -50 -10 -3 -2
-28 -6 -55 -9 -28 -4 -61 -8 -75 -11 -14 -3 -47 -7 -75 -10 -27 -3 -68 -7 -90
-10 -101 -12 -313 -17 -710 -17 -236 0 -438 1 -448 1 -16 1 -17 8 -12 64 13
144 17 173 32 262 2 17 6 39 8 50 11 80 17 113 22 130 4 11 7 25 8 30 2 21 26
131 32 145 4 8 7 22 9 30 4 36 97 330 124 395 7 17 14 35 16 40 1 6 10 28 20
50 10 22 19 47 20 55 6 30 217 440 227 440 6 0 8 3 4 6 -3 3 6 25 20 48 75
120 137 211 144 214 5 2 9 9 9 15 0 7 10 23 23 37 12 14 33 42 46 63 12 20 26
37 29 37 4 0 20 20 35 45 16 25 34 48 41 53 7 4 19 16 27 28 85 126 498 525
611 592 15 9 28 19 28 22 0 4 26 24 58 46 31 21 59 41 62 44 11 11 99 70 105
70 3 0 14 8 25 18 10 9 36 26 57 37 21 11 40 22 43 26 16 18 410 224 410 214
0 -3 10 1 23 9 19 13 242 103 272 111 6 1 18 5 27 9 9 4 22 8 30 10 7 1 18 5
24 8 6 4 21 9 35 12 13 2 45 11 70 20 25 9 54 17 65 19 10 1 25 6 32 11 7 4
16 6 18 3 3 -3 21 1 40 9 19 8 34 12 34 9 0 -3 8 -2 18 4 9 5 35 11 57 15 45
6 79 13 103 20 9 3 35 8 57 11 23 3 52 8 65 10 14 3 48 8 75 11 28 3 64 7 80
9 17 3 71 7 120 11 50 3 91 8 93 9 5 4 500 -4 542 -8z m1072 -241 c173 -67
191 -75 373 -166 175 -89 435 -244 435 -261 0 -5 4 -8 8 -6 20 5 326 -239 451
-360 36 -35 69 -63 75 -63 5 0 7 -2 4 -5 -3 -3 29 -41 71 -84 42 -43 96 -101
121 -130 25 -29 50 -58 55 -64 42 -49 95 -116 95 -121 0 -3 8 -15 18 -25 31
-35 152 -207 152 -217 0 -3 11 -20 25 -38 14 -18 25 -35 25 -39 0 -3 16 -29
35 -59 19 -29 38 -62 41 -73 4 -11 10 -22 14 -25 6 -5 141 -277 161 -325 5
-11 20 -46 33 -78 14 -31 26 -61 27 -65 1 -4 6 -18 11 -32 6 -14 11 -29 12
-35 1 -5 4 -14 8 -20 6 -10 71 -212 88 -275 5 -19 16 -59 25 -89 8 -30 13 -57
10 -59 -3 -3 -1 -10 4 -16 8 -9 12 -32 25 -116 1 -8 5 -24 9 -35 3 -11 8 -40
11 -65 3 -25 8 -56 11 -70 3 -14 8 -50 11 -80 3 -30 8 -68 10 -85 8 -71 16
-200 11 -195 -3 3 -17 59 -31 125 -42 190 -44 195 -67 195 -54 0 -92 -43 -160
-177 -45 -90 -63 -115 -152 -202 l-100 -99 -23 -107 c-25 -118 -24 -160 1
-350 9 -66 19 -163 22 -216 6 -109 -3 -141 -40 -135 -12 3 -32 5 -45 5 -18 1
-23 6 -22 24 1 12 2 43 1 69 -1 44 -3 48 -23 44 -19 -2 -23 -10 -24 -37 -2
-93 -32 -133 -110 -145 -33 -5 -48 -12 -53 -27 -17 -46 10 -124 53 -152 29
-19 57 -10 147 48 67 43 57 54 135 -145 53 -134 114 -248 132 -248 4 0 7 -73
6 -162 -1 -152 -2 -166 -25 -209 -27 -51 -36 -52 -87 -8 -18 16 -43 29 -55 29
-63 1 -70 9 -82 94 -7 49 -16 61 -51 64 -15 1 -53 12 -86 23 -63 23 -62 22
-35 89 5 14 12 44 14 67 l4 41 -33 -7 c-74 -17 -119 -63 -173 -176 -36 -74
-91 -267 -101 -354 -2 -25 -7 -53 -9 -61 -2 -8 -7 -41 -10 -73 -14 -136 -20
-151 -90 -258 -81 -121 -100 -157 -139 -259 -125 -329 -271 -538 -340 -487
-32 23 -97 252 -141 492 -12 67 -35 213 -40 255 -3 25 -7 61 -10 80 -7 49 -13
103 -20 185 -4 39 -9 84 -11 100 -3 17 -7 123 -9 237 l-4 207 -39 39 c-76 76
-101 239 -78 510 l7 77 -51 48 c-101 96 -149 197 -144 302 2 49 5 70 22 170
12 74 6 193 -13 250 -10 28 -45 107 -80 176 -85 172 -115 249 -118 308 -1 33
-6 51 -14 51 -7 0 -13 -5 -13 -11 0 -19 -70 -40 -119 -35 -25 2 -60 5 -77 5
l-30 1 0 1580 0 1580 28 -5 c15 -3 78 -25 140 -49z m-4112 -3809 c19 -3 62 -8
95 -11 33 -4 71 -8 85 -10 86 -12 118 -17 145 -23 17 -4 37 -7 45 -9 56 -8
110 -19 215 -45 66 -16 126 -32 133 -34 7 -2 13 -4 15 -4 1 0 16 -5 32 -11 17
-7 41 -14 54 -16 14 -3 29 -8 35 -12 6 -3 17 -7 24 -8 8 -2 21 -6 30 -10 9 -4
20 -8 25 -9 4 -2 8 -3 10 -5 1 -1 9 -3 17 -5 28 -6 255 -97 278 -111 12 -8 22
-12 22 -9 0 3 82 -37 183 -88 197 -101 407 -224 407 -239 0 -5 4 -7 9 -3 6 3
14 -3 20 -12 5 -10 12 -16 16 -15 8 5 75 -41 75 -50 0 -5 5 -8 11 -8 9 0 73
-46 107 -77 7 -7 16 -13 20 -13 4 0 24 -15 44 -33 20 -17 51 -43 69 -57 77
-61 124 -105 279 -260 155 -155 254 -262 274 -297 4 -8 16 -23 25 -33 41 -44
131 -166 131 -179 0 -5 4 -11 8 -13 12 -5 122 -172 122 -185 0 -6 4 -13 9 -15
8 -3 26 -32 101 -170 24 -44 32 -100 32 -228 0 -89 -2 -102 -41 -195 l-40
-101 19 -64 c31 -101 29 -107 -32 -113 -42 -4 -59 -1 -81 15 -16 11 -30 18
-32 16 -3 -2 -12 -38 -21 -79 -14 -61 -17 -123 -15 -355 l1 -282 -71 2 c-57 1
-73 -2 -74 -14 -1 -8 -5 -38 -9 -67 -11 -92 5 -86 -200 -79 -100 3 -199 7
-221 10 -22 2 -67 7 -100 10 -68 7 -105 12 -155 21 -19 4 -46 8 -60 11 -74 11
-87 14 -110 19 -14 4 -40 9 -58 12 -19 3 -82 18 -140 34 -59 16 -116 32 -126
34 -29 7 -209 67 -221 74 -5 3 -14 6 -20 7 -5 1 -23 8 -40 15 -16 6 -35 13
-41 14 -6 2 -27 10 -45 18 -56 25 -134 58 -136 58 -8 -2 -269 134 -281 145 -7
8 -18 14 -24 14 -13 0 -132 71 -136 82 -2 4 -8 8 -14 8 -9 0 -109 65 -218 141
-198 139 -465 379 -644 580 -26 30 -58 65 -70 79 -87 96 -316 416 -316 440 0
5 -3 10 -8 10 -4 0 -19 21 -32 48 -14 26 -28 49 -31 52 -15 12 -228 445 -233
474 -1 6 -7 20 -13 31 -6 11 -11 22 -11 25 0 3 -6 19 -12 35 -7 17 -13 35 -14
40 -1 6 -4 15 -8 20 -13 22 -99 311 -112 377 -2 12 -9 46 -16 73 -6 28 -13 61
-15 75 -2 14 -9 50 -14 80 -6 30 -13 71 -15 90 -3 19 -7 51 -10 70 -8 49 -15
130 -21 228 l-5 84 552 -5 c304 -3 569 -7 588 -10z m4381 -474 c4 -34 3 -166
-2 -168 -14 -10 -47 9 -63 36 -36 61 -30 104 17 124 37 16 47 18 48 8z m2737
-585 c3 -28 -28 -55 -48 -43 -11 7 -13 58 -3 69 17 16 48 0 51 -26z m-2538
-450 c0 -10 -4 -18 -10 -18 -5 0 -10 2 -10 4 0 2 -2 11 -5 19 -4 8 0 14 10 14
8 0 15 -9 15 -19z m1493 -42 c-2 -33 -10 -70 -19 -83 -20 -31 -55 -27 -65 7
-3 14 -12 44 -19 67 -19 61 -11 72 52 70 l53 -2 -2 -59z m1232 -245 c14 -44
-33 -72 -55 -32 -7 15 -6 23 6 35 21 21 41 20 49 -3z m-2750 -79 c-50 -43 -75
-13 -38 45 l16 24 24 -23 24 -23 -26 -23z m1395 -13 c0 -4 -16 -7 -35 -6 -40
1 -41 3 -18 29 15 17 17 17 35 2 10 -10 18 -20 18 -25z m-510 -208 c0 -6 -11
-23 -25 -38 l-26 -28 22 38 c21 37 29 45 29 28z m334 -30 c4 -5 -6 -24 -20
-41 -31 -36 -48 -25 -32 21 10 28 40 40 52 20z m-1234 -99 c0 -8 -8 -12 -17
-10 -17 3 -36 52 -25 63 8 7 41 -35 42 -53z m-531 -61 c48 -19 40 -28 -23 -27
-32 1 -40 5 -42 24 -5 26 6 27 65 3z m371 8 c0 -12 -31 -67 -43 -76 -36 -28
-44 -23 -46 30 l-1 52 45 0 c25 0 45 -3 45 -6z m3038 -141 c23 -25 36 -74 21
-83 -14 -9 -96 31 -108 53 -21 39 -14 52 27 52 27 0 45 -7 60 -22z m-2150 -77
c8 -4 12 -19 10 -32 -4 -34 -52 -39 -69 -8 -10 19 -9 25 7 36 21 15 34 16 52
4z m-1150 -60 c147 -73 341 -287 330 -363 -5 -38 -39 -29 -108 27 -99 82 -350
344 -350 367 0 15 70 -2 128 -31z m-87 -252 c114 -44 146 -82 101 -123 -14
-12 -169 -76 -185 -76 -2 0 -3 52 -3 115 0 63 1 115 2 115 1 0 39 -14 85 -31z
m-43 -240 l4 -24 -21 24 c-25 29 -26 30 -3 27 9 -2 19 -13 20 -27z m-487 -6
c1 -16 2 -32 3 -38 1 -5 5 -28 9 -50 3 -22 9 -66 12 -98 l5 -58 -21 20 c-12
11 -35 23 -51 26 -36 8 -56 38 -61 92 -5 56 13 96 54 116 45 22 49 21 50 -10z
m503 -112 c24 -15 58 -21 141 -26 61 -4 112 -9 115 -11 2 -3 -1 -13 -7 -22 -7
-9 -26 -40 -42 -68 -25 -43 -39 -55 -78 -70 -26 -11 -50 -19 -53 -20 -3 0 -18
-6 -35 -13 -16 -7 -37 -14 -45 -16 -8 -3 -24 -7 -35 -10 -20 -6 -21 -2 -21
134 0 156 1 158 60 122z m3534 -100 c6 0 12 -7 12 -15 0 -18 -37 -13 -58 7
-12 12 -10 14 10 12 13 -1 29 -3 36 -4z m-4001 -180 c2 -89 0 -101 -15 -102
-9 0 -24 -2 -32 -4 -91 -18 -92 -18 -92 30 0 8 0 21 1 29 0 7 28 42 61 76 33
34 60 67 60 72 0 5 4 7 8 4 4 -2 8 -50 9 -105z"/>
</g>
</svg>
